<svg width="24" height="24" viewBox="0 0 24 24" fill="none" xmlns="http://www.w3.org/2000/svg">
<g clip-path="url(#clip0_978_24387)">
<path d="M12 24C18.6274 24 24 18.6274 24 12C24 5.37258 18.6274 0 12 0C5.37258 0 0 5.37258 0 12C0 18.6274 5.37258 24 12 24Z" fill="#0052B4"/>
<path d="M11.9993 4.69566L12.3878 5.89139H13.645L12.6279 6.63037L13.0164 7.82611L11.9993 7.08708L10.9821 7.82611L11.3707 6.63037L10.3535 5.89139H11.6107L11.9993 4.69566Z" fill="#FFDA44"/>
<path d="M6.83474 6.83503L7.95506 7.40578L8.84404 6.51684L8.6473 7.75856L9.76757 8.32936L8.5258 8.52605L8.32912 9.76786L7.75832 8.64759L6.5166 8.84433L7.40559 7.95534L6.83474 6.83503Z" fill="#FFDA44"/>
<path d="M4.69531 12L5.89105 11.6115V10.3542L6.62998 11.3714L7.82577 10.9829L7.08669 12L7.82577 13.0171L6.62998 12.6286L5.89105 13.6458V12.3885L4.69531 12Z" fill="#FFDA44"/>
<path d="M6.83474 17.165L7.40554 16.0447L6.5166 15.1557L7.75837 15.3525L8.32907 14.2322L8.5258 15.474L9.76752 15.6706L8.6474 16.2414L8.84404 17.4832L7.95506 16.5942L6.83474 17.165Z" fill="#FFDA44"/>
<path d="M11.9993 19.3043L11.6107 18.1086H10.3535L11.3707 17.3696L10.9821 16.174L11.9993 16.9129L13.0164 16.174L12.6279 17.3696L13.645 18.1086H12.3878L11.9993 19.3043Z" fill="#FFDA44"/>
<path d="M17.1642 17.165L16.0439 16.5942L15.1549 17.4832L15.3516 16.2414L14.2314 15.6706L15.4732 15.474L15.6699 14.2322L16.2406 15.3525L17.4823 15.1557L16.5933 16.0447L17.1642 17.165Z" fill="#FFDA44"/>
<path d="M19.3042 12L18.1085 12.3885V13.6458L17.3695 12.6286L16.1738 13.0171L16.9128 12L16.1738 10.9829L17.3695 11.3714L18.1085 10.3542V11.6115L19.3042 12Z" fill="#FFDA44"/>
<path d="M17.1642 6.83503L16.5934 7.95535L17.4824 8.84433L16.2406 8.64755L15.6699 9.76781L15.4732 8.52605L14.2314 8.32931L15.3516 7.75856L15.1549 6.51689L16.044 7.40583L17.1642 6.83503Z" fill="#FFDA44"/>
</g>
<defs>
<clipPath id="clip0_978_24387">
<rect width="24" height="24" fill="white"/>
</clipPath>
</defs>
</svg>
